<svg width="40" height="40" viewBox="0 0 40 40" fill="none" xmlns="http://www.w3.org/2000/svg">
<rect y="1.81836" width="40" height="36.3636" rx="5" fill="#209CEE"/>
<path d="M11.588 31.252C10.508 31.252 9.572 31.06 8.78 30.676C8.012 30.292 7.412 29.656 6.98 28.768C6.548 27.856 6.332 26.596 6.332 24.988V23.8C6.716 23.8 7.1 23.8 7.484 23.8C7.892 23.8 8.276 23.8 8.636 23.8V25.132C8.636 26.332 8.756 27.268 8.996 27.94C9.26 28.588 9.608 29.044 10.04 29.308C10.496 29.572 11.012 29.704 11.588 29.704C12.524 29.704 13.28 29.416 13.856 28.84C14.456 28.24 14.756 27.184 14.756 25.672C14.756 24.592 14.6 23.788 14.288 23.26C13.976 22.708 13.496 22.276 12.848 21.964C12.2 21.628 11.408 21.268 10.472 20.884C9.704 20.572 9.008 20.2 8.384 19.768C7.784 19.312 7.316 18.724 6.98 18.004C6.644 17.284 6.476 16.372 6.476 15.268C6.476 14.02 6.644 12.988 6.98 12.172C7.316 11.332 7.868 10.708 8.636 10.3C9.404 9.892 10.424 9.688 11.696 9.688C13.352 9.688 14.624 10.108 15.512 10.948C16.424 11.764 16.88 12.928 16.88 14.44V16.78C16.52 16.78 16.148 16.78 15.764 16.78C15.404 16.78 15.032 16.78 14.648 16.78V14.98C14.648 13.828 14.396 12.964 13.892 12.388C13.412 11.788 12.692 11.488 11.732 11.488C10.676 11.488 9.908 11.8 9.428 12.424C8.972 13.024 8.744 13.948 8.744 15.196C8.744 16.132 8.924 16.876 9.284 17.428C9.644 17.956 10.112 18.376 10.688 18.688C11.264 18.976 11.876 19.24 12.524 19.48C13.604 19.888 14.48 20.32 15.152 20.776C15.824 21.208 16.316 21.772 16.628 22.468C16.94 23.164 17.096 24.136 17.096 25.384C17.096 26.848 16.856 28.012 16.376 28.876C15.92 29.716 15.272 30.328 14.432 30.712C13.616 31.072 12.668 31.252 11.588 31.252ZM25.8808 31.396C25.0168 31.396 24.2248 31.276 23.5048 31.036C22.7848 30.82 22.1968 30.352 21.7408 29.632C21.3088 28.912 21.0928 27.832 21.0928 26.392V14.188C21.0928 12.844 21.3208 11.836 21.7768 11.164C22.2568 10.492 22.8928 10.036 23.6848 9.796C24.5008 9.556 25.4368 9.436 26.4928 9.436C27.5488 9.436 28.4728 9.568 29.2648 9.832C30.0808 10.072 30.7168 10.528 31.1728 11.2C31.6288 11.872 31.8568 12.868 31.8568 14.188V16.888H29.6608V14.152C29.6608 13.192 29.5168 12.484 29.2288 12.028C28.9648 11.572 28.5928 11.272 28.1128 11.128C27.6568 10.96 27.1168 10.876 26.4928 10.876C25.8928 10.876 25.3528 10.96 24.8728 11.128C24.3928 11.272 24.0208 11.572 23.7568 12.028C23.4928 12.484 23.3608 13.192 23.3608 14.152V26.752C23.3608 27.712 23.4928 28.432 23.7568 28.912C24.0208 29.368 24.3928 29.668 24.8728 29.812C25.3528 29.956 25.8928 30.028 26.4928 30.028C27.4288 30.028 28.1848 29.752 28.7608 29.2C29.3608 28.624 29.6608 27.808 29.6608 26.752V22.324H26.8888V20.92H31.8568V31H30.1648L30.0568 28.948C29.9848 29.116 29.8888 29.284 29.7688 29.452C29.6728 29.596 29.5888 29.728 29.5168 29.848C29.1808 30.328 28.7128 30.712 28.1128 31C27.5368 31.264 26.7928 31.396 25.8808 31.396Z" fill="white"/>
</svg>
